<mxfile host="app.diagrams.net" modified="2023-12-22T09:59:05.449Z" agent="Mozilla/5.0 (Windows NT 10.0; Win64; x64) AppleWebKit/537.36 (KHTML, like Gecko) Chrome/120.0.0.0 Safari/537.36" version="22.1.11" etag="z1TE_iq3Pvjecc3r36Y9" type="github">
  <diagram name="Page-1" id="5xmI39w0l5N7dqHhCXBR">
    <mxGraphModel>
      <root>
        <mxCell id="0" />
        <mxCell id="1" parent="0" />
      </root>
    </mxGraphModel>
  </diagram>
</mxfile>
